{"glyphs":{":":{"x_min":0,"x_max":271,"ha":271,"o":"m 62 370 q 62 401 83 422 q 104 443 135 443 q 166 443 188 422 q 209 400 209 370 q 209 339 187 318 q 166 296 135 296 q 104 296 83 317 q 62 339 62 370 z m 62 59 q 62 90 83 111 q 104 132 135 132 q 166 132 188 111 q 209 89 209 59 q 209 28 187 7 q 166 -15 135 -15 q 104 -15 83 6 q 62 28 62 59 z"},"$":{"x_min":0,"x_max":495,"ha":495,"o":"m 274 31 q 322 34 350 65 q 378 96 378 145 q 378 188 352 220 q 326 251 274 269 z m 236 -98 l 236 -9 l 231 -9 q 139 -9 76 33 q 14 75 14 133 q 14 159 30 176 q 46 193 70 193 q 93 193 106 177 q 120 162 128 128 q 129 122 131 110 q 138 72 154 55 q 167 41 187 34 q 207 27 236 27 l 236 287 q 125 332 80 380 q 34 428 34 497 q 34 574 88 620 q 143 667 236 669 l 236 715 l 274 715 l 274 669 q 357 664 407 629 q 458 593 458 542 q 458 517 444 502 q 429 487 405 487 q 386 487 374 495 q 363 504 356 523 q 354 529 351 543 q 341 580 329 600 q 321 613 307 621 q 293 629 274 633 l 274 410 q 382 367 432 313 q 481 260 481 186 q 481 102 427 51 q 373 0 274 -9 l 274 -98 z m 236 635 q 188 633 160 606 q 131 579 131 537 q 131 501 155 475 q 179 450 236 426 z"},"?":{"x_min":0,"x_max":419,"ha":419,"o":"m 137 203 q 111 253 102 279 q 93 304 93 324 q 93 358 110 377 q 128 396 194 415 q 264 435 290 455 q 317 476 317 506 q 317 535 298 552 q 279 569 247 569 q 224 569 186 561 q 148 553 134 553 q 103 553 84 570 q 66 586 66 613 q 66 646 94 665 q 123 683 174 683 q 263 683 316 624 q 370 565 370 467 q 370 417 349 379 q 328 340 289 318 q 262 303 226 292 q 189 281 184 278 q 169 270 165 265 q 160 259 160 252 q 160 241 164 229 q 168 218 176 206 z m 97 59 q 97 90 118 111 q 139 132 170 132 q 201 132 222 111 q 244 89 244 59 q 244 28 222 7 q 200 -15 170 -15 q 140 -15 118 6 q 97 28 97 59 z"},"<":{"x_min":0,"x_max":833,"ha":833,"o":"m 704 583 l 704 476 l 268 298 l 704 120 l 704 13 l 129 250 l 129 347 z"},"'":{"x_min":0,"x_max":178,"ha":178,"o":"m 99 416 l 79 416 l 40 641 q 39 647 39 651 q 38 656 38 659 q 38 685 52 700 q 65 715 89 715 q 112 715 126 701 q 139 687 139 661 q 139 653 139 649 q 139 645 138 641 z"},"=":{"x_min":0,"x_max":833,"ha":833,"o":"m 124 242 l 709 242 l 709 145 l 124 145 z m 124 452 l 709 452 l 709 355 l 124 355 z"},"a":{"x_min":0,"x_max":512,"ha":512,"o":"m 295 238 q 224 209 198 184 q 171 159 171 124 q 171 93 187 74 q 204 55 230 55 q 246 55 262 65 q 279 76 295 96 z m 299 53 q 270 22 238 7 q 206 -8 168 -8 q 109 -8 76 23 q 43 54 43 109 q 43 148 65 174 q 87 201 141 225 q 152 230 205 247 q 258 265 295 283 l 295 334 q 295 368 281 385 q 266 403 238 403 q 208 403 192 386 q 176 369 176 337 q 176 335 176 330 q 177 326 177 323 l 57 286 q 55 294 53 304 q 52 314 52 322 q 52 343 59 359 q 65 376 79 388 q 108 414 154 429 q 199 444 249 444 q 288 444 322 435 q 356 426 378 409 q 406 388 417 362 q 428 336 428 270 l 428 262 l 428 139 q 428 98 432 85 q 437 72 447 72 q 453 72 462 74 q 471 77 480 81 l 491 57 q 460 24 432 8 q 403 -8 375 -8 q 346 -8 328 7 q 309 22 299 53 z"},"L":{"x_min":0,"x_max":675,"ha":675,"o":"m 268 134 q 268 85 278 74 q 288 64 330 64 l 430 64 q 467 64 488 69 q 510 74 528 86 q 539 93 558 115 q 577 136 616 188 l 660 188 l 582 0 l 23 0 l 23 46 l 34 46 q 79 46 98 64 q 118 82 118 123 l 118 546 q 118 587 98 605 q 79 623 34 623 l 23 623 l 23 669 l 363 669 l 363 623 l 352 623 q 308 623 288 605 q 268 587 268 546 z"},"3":{"x_min":0,"x_max":495,"ha":495,"o":"m 176 330 l 159 358 q 215 403 241 442 q 266 480 266 520 q 266 557 247 577 q 227 598 193 598 q 162 598 137 580 q 113 562 94 525 l 59 535 q 87 609 134 646 q 181 683 247 683 q 309 683 349 649 q 389 615 389 563 q 389 526 366 493 q 343 459 289 417 q 360 408 401 360 q 441 312 441 237 q 441 126 366 56 q 291 -15 172 -15 q 108 -15 68 10 q 28 36 28 74 q 28 99 43 115 q 58 132 80 132 q 96 132 109 126 q 122 121 131 110 q 134 106 140 100 q 193 37 231 37 q 268 37 291 76 q 314 114 314 178 q 314 254 286 293 q 257 332 201 332 q 194 332 178 330 q 177 330 176 330 z"},";":{"x_min":0,"x_max":271,"ha":271,"o":"m 144 -13 q 141 -14 138 -14 q 135 -14 129 -14 q 92 -14 72 5 q 51 24 51 57 q 51 88 73 110 q 95 132 127 132 q 167 132 189 103 q 211 74 211 22 q 211 -42 175 -91 q 139 -140 72 -167 l 59 -138 q 102 -116 123 -86 q 144 -56 144 -16 z m 57 370 q 57 401 78 422 q 99 443 130 443 q 161 443 183 422 q 204 400 204 370 q 204 339 182 318 q 160 296 130 296 q 100 296 78 317 q 57 339 57 370 z"},"J":{"x_min":0,"x_max":381,"ha":381,"o":"m 268 174 q 268 39 249 -36 q 230 -111 187 -159 q 152 -198 104 -218 q 55 -237 -10 -237 q -58 -237 -84 -219 q -111 -202 -111 -171 q -111 -145 -92 -127 q -73 -110 -44 -110 q -29 -110 -15 -116 q -1 -122 13 -134 q 17 -138 25 -146 q 50 -172 69 -172 q 91 -172 104 -147 q 117 -122 117 -78 l 117 546 q 117 587 97 605 q 78 623 33 623 l 22 623 l 22 669 l 363 669 l 363 623 l 352 623 q 308 623 288 605 q 268 587 268 546 z"},"V":{"x_min":0,"x_max":691,"ha":691,"o":"m 314 -12 l 74 524 l 72 529 q 45 590 19 606 q 8 613 -8 617 q -24 622 -44 623 l -44 669 l 323 669 l 324 623 q 265 622 243 611 q 222 601 222 574 q 222 568 225 559 q 228 549 233 537 l 394 175 l 544 525 q 553 547 557 560 q 560 573 560 583 q 560 603 541 612 q 522 621 468 623 l 469 669 l 735 669 l 735 623 q 692 620 669 603 q 646 587 619 525 l 387 -12 z"},"\"":{"x_min":0,"x_max":345,"ha":345,"o":"m 265 416 l 245 416 l 206 641 q 205 647 205 651 q 204 656 204 659 q 204 685 218 700 q 231 715 255 715 q 279 715 292 700 q 306 686 306 661 q 306 658 306 654 q 305 649 304 641 z m 99 416 l 79 416 l 40 641 q 40 645 39 648 q 39 652 39 659 q 39 685 53 700 q 66 715 89 715 q 112 715 126 701 q 139 687 139 661 q 139 653 139 649 q 139 645 138 641 z"},"7":{"x_min":0,"x_max":495,"ha":495,"o":"m 128 -8 l 367 546 l 159 546 q 116 546 99 532 q 82 519 77 482 l 40 482 l 54 669 l 480 669 l 478 617 l 233 -8 z"},"S":{"x_min":0,"x_max":580,"ha":580,"o":"m 51 199 l 95 200 q 119 121 167 79 q 215 36 281 36 q 332 36 364 65 q 395 94 395 140 q 395 211 244 295 q 218 309 204 317 q 126 360 93 403 q 59 446 59 500 q 59 580 117 630 q 175 680 267 680 q 316 680 370 667 q 424 655 430 655 q 438 655 446 657 q 454 660 460 665 l 477 663 l 495 489 l 454 488 q 433 555 387 593 q 342 631 284 631 q 238 631 211 610 q 183 589 183 554 q 183 538 189 523 q 196 508 208 496 q 237 468 317 425 q 360 402 381 389 q 463 339 497 292 q 531 246 531 185 q 531 101 467 44 q 402 -12 306 -12 q 271 -12 226 -5 q 181 3 125 18 l 113 5 l 77 3 z"},"}":{"x_min":0,"x_max":500,"ha":500,"o":"m 84 740 q 199 740 241 705 q 283 669 283 571 l 283 477 q 283 396 311 366 q 338 336 414 329 l 414 292 q 338 285 311 255 q 283 225 283 144 l 283 50 q 283 -47 242 -83 q 200 -119 90 -119 l 84 -119 l 84 -90 q 142 -89 164 -63 q 186 -38 186 39 l 186 105 q 186 215 212 255 q 238 294 308 310 q 238 326 212 366 q 186 406 186 516 l 186 581 q 186 657 164 683 q 142 709 84 710 z"},"Z":{"x_min":0,"x_max":769,"ha":769,"o":"m 27 0 l 27 67 l 506 607 l 240 607 q 173 607 149 582 q 125 558 117 485 l 72 485 l 80 669 l 692 669 l 692 607 l 214 62 l 493 62 q 547 62 573 69 q 598 75 617 91 q 633 104 646 136 q 658 167 667 215 l 712 214 l 699 0 z"},"x":{"x_min":0,"x_max":511,"ha":511,"o":"m -9 0 l -8 35 q 22 43 47 58 q 71 73 102 105 l 189 195 l 75 336 q 50 368 30 380 q 11 392 -15 396 l -13 431 l 243 431 l 243 396 q 227 395 218 390 q 209 385 209 377 q 209 369 222 354 q 225 350 227 348 l 278 286 l 325 332 q 336 343 342 354 q 348 364 348 372 q 348 383 337 389 q 327 396 308 396 l 308 431 l 503 431 l 502 396 q 449 391 386 328 l 382 324 l 308 250 l 440 87 q 458 65 478 52 q 498 39 521 35 l 522 0 l 252 0 l 251 35 q 271 37 281 42 q 291 46 291 55 q 291 61 287 69 q 283 78 276 87 l 219 159 l 160 97 q 149 85 145 77 q 140 68 140 61 q 140 50 149 43 q 158 37 176 35 l 176 0 z"},")":{"x_min":0,"x_max":405,"ha":405,"o":"m 85 683 q 197 596 256 483 q 314 370 314 241 q 314 113 256 0 q 197 -112 85 -200 l 45 -200 q 115 -117 150 -9 q 184 100 184 241 q 184 382 150 491 q 115 600 45 683 z"},"&":{"x_min":0,"x_max":750,"ha":750,"o":"m 315 419 q 339 438 350 458 q 361 479 361 504 q 361 540 343 560 q 326 580 294 580 q 268 580 251 564 q 235 548 235 523 q 235 494 253 470 q 271 446 315 419 z m 400 129 q 367 188 325 237 q 283 286 230 325 q 192 299 175 270 q 157 242 157 207 q 157 148 194 108 q 231 68 285 68 q 317 68 345 83 q 374 98 400 129 z m 422 80 q 377 34 324 11 q 272 -12 213 -12 q 128 -12 77 36 q 25 84 25 163 q 25 225 67 272 q 109 319 195 354 q 155 393 137 424 q 119 456 119 487 q 119 545 168 584 q 217 623 292 623 q 364 623 406 593 q 447 562 447 509 q 447 474 425 443 q 402 413 357 386 q 401 349 435 311 q 469 273 495 231 q 539 297 557 336 q 576 375 576 399 q 576 407 566 411 q 557 414 532 414 l 520 414 l 521 458 l 727 458 l 728 416 q 693 416 672 409 q 651 402 638 386 q 638 386 604 321 q 569 256 526 192 l 552 147 q 581 95 599 78 q 617 61 638 61 q 650 61 665 66 q 680 72 699 83 l 718 46 q 684 16 647 1 q 611 -13 571 -13 q 527 -13 492 8 q 458 30 422 80 z"},"_":{"x_min":0,"x_max":500,"ha":500,"o":"m 0 -136 l 500 -136 l 500 -236 l 0 -236 z"},"v":{"x_min":0,"x_max":509,"ha":509,"o":"m 219 -16 l 75 311 q 56 356 36 375 q 17 393 -10 393 l -14 393 l -14 431 l 251 431 l 251 393 q 218 391 206 387 q 194 382 194 373 q 194 362 204 339 q 207 333 209 328 l 297 128 l 375 304 q 381 318 385 331 q 388 344 388 352 q 388 374 372 384 q 356 393 319 393 l 319 431 l 525 431 l 525 393 l 519 393 q 489 393 472 378 q 454 364 432 312 l 290 -16 z"},"O":{"x_min":0,"x_max":858,"ha":858,"o":"m 424 -16 q 347 -16 279 6 q 210 28 159 70 q 100 118 68 182 q 37 247 37 322 q 37 396 69 465 q 101 533 159 584 q 215 633 285 658 q 354 683 435 683 q 512 683 580 661 q 647 639 699 597 q 758 549 790 484 q 821 420 821 345 q 821 269 788 200 q 756 131 695 79 q 640 31 573 8 q 505 -16 424 -16 z m 199 362 q 199 212 266 118 q 333 25 437 25 q 540 25 599 102 q 658 178 658 313 q 658 457 591 547 q 523 638 419 638 q 320 638 260 563 q 199 488 199 362 z"},"(":{"x_min":0,"x_max":405,"ha":405,"o":"m 322 -200 q 209 -112 151 0 q 93 113 93 241 q 93 370 151 483 q 210 596 322 683 l 362 683 q 292 603 258 492 q 223 381 223 241 q 223 100 257 -9 q 292 -117 362 -200 z"},"C":{"x_min":0,"x_max":784,"ha":784,"o":"m 728 192 l 668 -1 q 646 2 627 4 q 608 6 594 6 q 582 6 524 -3 q 465 -12 419 -12 q 338 -12 270 11 q 203 35 149 82 q 95 130 65 193 q 35 256 35 324 q 35 401 71 471 q 107 542 174 594 q 226 635 296 657 q 366 680 440 680 q 508 680 577 660 q 646 639 649 639 q 656 639 663 641 q 669 644 676 648 l 693 647 l 702 457 l 661 457 q 629 542 576 583 q 522 624 445 624 q 339 624 269 542 q 198 459 198 334 q 198 282 214 234 q 230 186 260 147 q 302 94 352 68 q 402 41 461 41 q 530 41 584 79 q 639 117 680 194 z"},"W":{"x_min":0,"x_max":954,"ha":954,"o":"m 372 128 l 448 314 l 344 568 q 333 597 315 609 q 297 622 269 622 q 237 622 223 611 q 209 600 209 576 q 209 569 213 555 q 217 541 228 512 z m 488 544 l 530 442 l 571 544 q 577 558 580 571 q 583 584 583 596 q 583 610 571 616 q 559 622 529 622 q 499 622 487 615 q 475 608 475 592 q 475 584 478 574 q 480 563 488 544 z m 275 -9 l 83 507 q 58 575 35 599 q 12 622 -24 622 l -25 669 l 719 669 l 720 622 q 687 616 667 599 q 648 582 625 528 l 559 372 l 657 133 l 814 524 q 822 545 826 561 q 830 576 830 586 q 830 602 817 610 q 804 619 774 622 l 774 669 l 978 669 l 978 622 q 922 615 886 523 l 884 517 l 679 -9 l 572 -9 l 475 239 l 376 -9 z"},"A":{"x_min":0,"x_max":726,"ha":726,"o":"m -28 0 l -28 46 q 19 46 41 59 q 63 73 76 107 l 256 593 q 267 620 270 632 q 273 645 273 653 q 273 659 271 665 q 270 670 267 677 l 425 677 l 636 127 q 653 83 676 66 q 698 49 740 47 l 738 0 l 391 0 l 392 47 l 413 47 q 458 47 474 57 q 490 66 490 92 q 490 98 489 104 q 488 110 485 117 l 434 248 l 203 248 l 161 131 q 160 128 159 125 q 150 99 150 87 q 150 65 173 55 q 197 46 253 46 l 253 0 z m 226 309 l 411 309 l 318 556 z"},"f":{"x_min":0,"x_max":366,"ha":366,"o":"m 33 0 l 33 37 q 69 38 83 50 q 96 63 96 100 l 96 373 l 21 373 l 21 398 l 96 431 q 100 494 121 544 q 143 594 183 634 q 223 674 272 696 q 321 718 370 718 q 430 718 468 699 q 505 680 505 650 q 505 630 485 605 q 465 579 448 579 q 434 579 416 597 q 411 602 408 605 q 382 630 358 642 q 333 655 311 655 q 269 655 249 622 q 230 589 230 515 l 230 431 l 334 431 l 334 373 l 230 373 l 230 100 q 230 63 243 51 q 256 38 293 37 l 293 0 z"},"Q":{"x_min":0,"x_max":858,"ha":858,"o":"m 549 -1 q 590 -36 624 -68 q 658 -99 681 -122 q 725 -162 762 -178 q 799 -194 842 -195 l 822 -238 q 811 -240 798 -241 q 786 -242 771 -242 q 735 -242 700 -235 q 664 -227 627 -212 q 604 -203 580 -190 q 556 -177 532 -160 q 494 -133 450 -95 q 407 -58 397 -51 q 394 -49 386 -43 q 347 -18 319 -6 q 307 -1 281 7 q 215 29 180 53 q 112 100 74 170 q 37 240 37 322 q 37 397 69 465 q 100 533 159 584 q 215 633 285 658 q 354 683 435 683 q 512 683 580 661 q 647 639 699 597 q 758 549 789 484 q 820 420 820 345 q 820 226 747 133 q 675 40 549 -1 z m 199 362 q 199 212 266 118 q 333 25 437 25 q 540 25 599 102 q 658 178 658 313 q 658 457 591 547 q 523 638 419 638 q 320 638 260 563 q 199 488 199 362 z"},"w":{"x_min":0,"x_max":773,"ha":773,"o":"m 201 -16 l 60 323 q 46 356 26 373 q 6 390 -25 396 l -26 431 l 224 431 l 224 396 q 204 391 196 384 q 188 377 188 363 q 188 356 190 347 q 192 339 197 328 l 274 142 l 357 328 q 347 364 333 378 q 320 393 294 396 l 294 431 l 532 431 l 533 396 q 505 394 495 386 q 485 379 485 361 q 485 354 487 346 q 489 338 494 327 l 573 141 l 646 313 q 651 324 653 333 q 656 343 656 351 q 656 370 641 381 q 626 392 595 396 l 595 431 l 793 431 l 792 396 q 756 390 737 373 q 717 356 695 301 l 564 -16 l 500 -16 l 381 261 l 266 -16 z"},"-":{"x_min":0,"x_max":389,"ha":389,"o":"m 47 159 l 47 269 l 341 269 l 341 159 z"},"E":{"x_min":0,"x_max":675,"ha":675,"o":"m 22 0 l 22 46 l 33 46 q 78 46 97 64 q 117 82 117 123 l 117 546 q 117 587 97 605 q 78 623 33 623 l 22 623 l 22 669 l 599 669 l 607 512 l 568 512 q 561 571 543 588 q 525 606 463 606 l 266 606 l 266 368 l 423 368 q 471 368 492 385 q 513 403 513 442 l 513 448 l 555 448 l 555 229 l 513 229 l 513 235 q 513 274 492 292 q 471 309 423 309 l 266 309 l 266 132 q 266 89 276 78 q 286 67 316 67 l 459 67 q 529 67 558 90 q 587 113 596 173 l 640 173 l 626 0 z"},"s":{"x_min":0,"x_max":394,"ha":394,"o":"m 52 -13 l 42 120 l 78 118 q 94 77 120 56 q 146 35 183 35 q 209 35 225 48 q 241 60 241 81 q 241 110 174 153 q 143 172 125 185 q 82 215 63 244 q 45 273 45 309 q 45 371 90 407 q 134 444 210 444 q 236 444 266 438 q 295 433 328 421 l 331 310 l 294 311 q 282 351 256 375 q 230 398 199 398 q 178 398 164 385 q 150 373 150 354 q 150 322 227 276 q 264 254 285 240 q 321 216 338 187 q 355 159 355 123 q 355 61 314 24 q 273 -13 203 -13 q 179 -13 155 -10 q 130 -7 104 0 l 89 -13 z"},">":{"x_min":0,"x_max":833,"ha":833,"o":"m 129 583 l 704 347 l 704 250 l 129 13 l 129 120 l 566 298 l 129 476 z"},"l":{"x_min":0,"x_max":316,"ha":316,"o":"m 229 100 q 229 63 242 50 q 255 38 291 37 l 292 0 l 32 0 l 32 37 q 68 38 82 51 q 95 63 95 100 l 95 559 q 95 588 84 599 q 72 610 32 620 l 32 657 l 206 718 l 229 718 z"},"8":{"x_min":0,"x_max":495,"ha":495,"o":"m 157 324 q 100 366 72 410 q 44 453 44 501 q 44 579 102 631 q 159 683 248 683 q 336 683 393 637 q 450 591 450 522 q 450 474 419 436 q 387 397 331 377 q 400 333 431 287 q 463 242 463 187 q 463 100 401 42 q 339 -15 245 -15 q 156 -15 94 37 q 32 88 32 162 q 32 213 64 254 q 95 295 157 324 z m 293 399 q 321 424 334 454 q 347 483 347 522 q 347 578 320 610 q 293 643 248 643 q 208 643 181 616 q 154 590 154 550 q 154 503 185 469 q 216 435 293 399 z m 198 295 q 168 267 154 234 q 140 202 140 162 q 140 100 172 62 q 204 25 256 25 q 298 25 327 57 q 357 88 357 134 q 357 184 320 222 q 283 260 198 295 z"},"\\":{"x_min":0,"x_max":278,"ha":278,"o":"m 335 -93 l 274 -93 l -22 683 l 36 683 z"},"e":{"x_min":0,"x_max":505,"ha":505,"o":"m 174 264 l 332 264 q 331 327 311 360 q 291 392 253 392 q 214 392 194 360 q 174 327 174 264 z m 462 103 q 414 43 362 13 q 309 -16 250 -16 q 155 -16 94 46 q 33 109 33 206 q 33 308 101 376 q 168 444 269 444 q 334 444 384 407 q 435 371 449 313 q 450 308 452 300 q 458 268 473 254 l 473 225 l 174 225 q 178 144 214 100 q 250 56 312 56 q 348 56 378 72 q 409 88 441 124 z"},"b":{"x_min":0,"x_max":590,"ha":590,"o":"m 218 308 l 218 150 q 218 96 243 66 q 269 37 315 37 q 368 37 398 79 q 428 121 428 195 q 428 275 399 321 q 370 366 319 366 q 292 366 267 352 q 242 338 218 308 z m 218 372 q 269 408 311 426 q 353 444 387 444 q 462 444 511 387 q 560 330 560 240 q 560 133 486 63 q 411 -7 295 -7 q 254 -7 203 0 q 151 7 84 22 l 84 559 q 84 589 73 599 q 62 610 22 620 l 21 657 l 195 718 l 218 718 z"},"%":{"x_min":0,"x_max":809,"ha":809,"o":"m 614 21 q 649 21 665 51 q 681 82 681 150 q 681 220 666 249 q 650 278 615 278 q 579 278 563 247 q 548 217 548 142 q 548 79 564 50 q 580 21 614 21 z m 614 315 q 686 315 733 268 q 781 221 781 150 q 781 79 733 32 q 686 -15 614 -15 q 543 -15 496 32 q 449 79 449 150 q 449 221 496 268 q 543 315 614 315 z m 539 681 l 596 681 l 274 -14 l 213 -14 z m 195 681 q 267 681 314 634 q 362 587 362 516 q 362 445 314 398 q 267 351 195 351 q 124 351 76 398 q 29 445 29 516 q 29 587 76 634 q 124 681 195 681 z m 194 387 q 229 387 246 418 q 262 448 262 516 q 262 585 247 615 q 231 644 196 644 q 160 644 144 613 q 128 582 128 508 q 128 445 144 416 q 160 387 194 387 z"},"m":{"x_min":0,"x_max":920,"ha":920,"o":"m 523 371 q 617 415 660 429 q 704 444 734 444 q 793 444 819 404 q 845 365 845 272 q 845 255 845 246 q 845 237 844 228 l 839 135 q 839 131 838 123 q 838 115 838 112 q 838 70 852 55 q 866 40 903 37 l 903 0 l 643 0 l 642 37 q 677 38 692 63 q 706 88 708 163 l 710 234 l 710 251 q 710 313 695 339 q 681 364 646 364 q 626 364 597 354 q 568 343 531 323 l 531 100 q 531 63 544 50 q 558 38 593 37 l 594 0 l 334 0 l 334 37 q 371 38 384 51 q 397 63 397 100 l 397 234 q 397 312 383 338 q 369 364 333 364 q 312 364 283 354 q 255 343 222 323 l 222 100 q 222 63 235 50 q 249 38 284 37 l 285 0 l 25 0 l 25 37 q 61 38 74 50 q 87 63 87 100 l 87 305 q 87 335 76 345 q 64 356 25 366 l 25 403 l 199 464 l 222 464 l 222 371 q 294 410 341 427 q 387 444 421 444 q 460 444 486 426 q 511 407 523 371 z"},"#":{"x_min":0,"x_max":769,"ha":769,"o":"m 344 416 l 300 293 l 429 293 l 472 416 z m 347 715 l 452 715 l 380 512 l 504 512 l 577 715 l 681 715 l 609 512 l 747 512 l 711 415 l 575 415 l 532 294 l 675 294 l 640 198 l 498 198 l 426 -5 l 321 -5 l 393 198 l 269 198 l 196 -5 l 91 -5 l 163 198 l 22 198 l 58 294 l 198 294 l 241 415 l 93 415 l 129 512 l 275 512 z"},",":{"x_min":0,"x_max":248,"ha":248,"o":"m 136 -13 q 133 -14 130 -14 q 127 -14 121 -14 q 84 -14 64 5 q 43 24 43 57 q 43 88 65 110 q 87 132 119 132 q 158 132 180 103 q 202 74 202 22 q 202 -42 167 -91 q 131 -140 64 -167 l 51 -138 q 94 -116 115 -86 q 136 -56 136 -16 z"},"n":{"x_min":0,"x_max":610,"ha":610,"o":"m 222 323 l 222 100 q 222 65 235 51 q 248 37 280 37 l 284 37 l 285 0 l 25 0 l 25 37 q 61 38 74 50 q 87 63 87 100 l 87 305 q 87 333 75 345 q 63 357 25 366 l 25 403 l 199 464 l 222 464 l 222 371 q 294 410 341 427 q 387 444 421 444 q 480 444 506 404 q 532 365 532 272 q 532 255 532 246 q 532 237 531 228 l 526 135 q 526 130 525 122 q 525 114 525 111 q 525 70 538 55 q 552 40 589 37 l 590 0 l 329 0 l 329 37 q 364 38 379 63 q 393 88 395 163 l 397 234 l 397 250 q 397 313 382 338 q 368 364 333 364 q 312 364 283 354 q 255 343 222 323 z"},"h":{"x_min":0,"x_max":608,"ha":608,"o":"m 219 323 l 219 100 q 219 63 233 51 q 246 38 282 37 l 282 0 l 22 0 l 23 37 q 59 38 72 50 q 85 63 85 100 l 85 559 q 85 589 74 599 q 62 610 23 620 l 22 657 l 197 718 l 219 718 l 219 371 q 292 410 338 427 q 384 444 418 444 q 477 444 503 404 q 529 365 529 272 q 529 255 529 246 q 528 236 528 228 l 524 135 q 524 130 523 122 q 523 114 523 111 q 523 70 536 55 q 550 40 587 37 l 587 0 l 327 0 l 327 37 q 363 38 377 63 q 392 89 394 163 l 394 251 q 394 313 379 338 q 365 364 331 364 q 310 364 281 353 q 251 343 219 323 z"},"z":{"x_min":0,"x_max":569,"ha":569,"o":"m 43 0 l 43 39 l 328 376 l 219 376 q 155 376 131 357 q 107 339 84 286 l 51 286 l 84 461 l 120 463 q 120 445 130 438 q 141 431 180 431 l 188 431 l 506 431 l 506 397 l 227 65 l 355 65 q 405 65 433 83 q 460 100 490 150 l 523 149 l 473 0 z"},"B":{"x_min":0,"x_max":722,"ha":722,"o":"m 23 0 l 23 46 l 34 46 q 79 46 98 64 q 118 82 118 123 l 118 546 q 118 587 98 605 q 79 623 34 623 l 23 623 l 23 669 q 92 671 195 674 q 297 677 321 677 q 476 677 553 635 q 631 593 631 510 q 631 462 603 431 q 574 399 516 382 q 595 350 632 306 q 670 262 670 201 q 670 160 653 125 q 635 89 601 61 q 560 28 497 14 q 435 0 305 0 z m 269 395 l 323 395 q 410 395 444 420 q 479 445 479 504 q 479 571 438 603 q 398 634 311 634 l 269 634 z m 269 352 l 269 164 q 269 90 288 70 q 307 51 358 51 q 426 51 465 90 q 504 128 504 196 q 504 279 460 315 q 416 352 312 352 z"},"K":{"x_min":0,"x_max":745,"ha":745,"o":"m 268 346 q 314 355 356 383 q 398 411 444 463 q 477 500 494 532 q 511 563 511 584 q 511 604 495 613 q 479 622 441 622 l 441 669 l 718 669 l 717 622 q 673 622 645 609 q 617 596 582 552 q 568 534 542 499 q 470 404 429 373 q 481 343 595 200 q 614 176 624 163 l 632 153 q 716 48 789 48 l 799 48 l 799 0 l 445 0 l 445 45 q 470 46 485 54 q 499 62 499 75 q 499 97 467 142 q 435 188 378 244 q 348 274 322 288 q 295 303 268 304 l 268 123 q 268 82 288 64 q 308 46 352 46 l 363 46 l 363 0 l 23 0 l 23 46 l 34 46 q 79 46 98 64 q 118 82 118 123 l 118 546 q 118 587 98 605 q 79 623 34 623 l 23 623 l 23 669 l 363 669 l 363 623 l 352 623 q 308 623 288 605 q 268 587 268 546 z"},"R":{"x_min":0,"x_max":732,"ha":732,"o":"m 269 123 q 269 82 288 64 q 308 46 352 46 l 363 46 l 363 0 l 23 0 l 23 46 l 34 46 q 79 46 98 64 q 118 82 118 123 l 118 546 q 118 587 98 605 q 79 623 34 623 l 23 623 l 23 669 q 37 669 65 671 q 280 680 348 680 q 507 680 585 632 q 664 584 664 487 q 664 417 621 371 q 577 326 494 310 q 530 286 584 184 q 601 153 610 137 q 641 82 667 62 q 694 42 734 38 l 734 -6 q 713 -7 695 -8 q 676 -9 659 -9 q 601 -9 564 4 q 527 17 497 47 q 480 65 433 148 q 386 230 351 284 l 269 284 z m 269 626 l 269 339 q 300 335 316 333 q 331 332 342 332 q 421 332 463 370 q 505 408 505 480 q 505 553 463 593 q 422 633 346 633 q 335 633 321 632 q 306 630 269 626 z"},"T":{"x_min":0,"x_max":760,"ha":760,"o":"m 305 611 l 200 611 q 163 611 141 606 q 120 601 108 590 q 100 582 92 561 q 84 540 70 482 l 26 483 l 45 684 l 79 684 l 105 669 l 655 669 l 681 684 l 715 684 l 734 483 l 690 482 q 675 540 667 561 q 660 582 652 590 q 640 601 618 606 q 597 611 559 611 l 455 611 l 455 123 q 455 82 475 64 q 495 46 539 46 l 550 46 l 550 0 l 210 0 l 210 46 l 221 46 q 266 46 285 64 q 305 82 305 123 z"},"P":{"x_min":0,"x_max":687,"ha":687,"o":"m 269 123 q 269 82 288 64 q 308 46 352 46 l 363 46 l 363 0 l 23 0 l 23 46 l 34 46 q 79 46 98 64 q 118 82 118 123 l 118 546 q 118 587 98 605 q 79 623 34 623 l 23 623 l 23 669 q 72 671 156 674 q 289 680 333 680 q 414 680 464 671 q 514 662 551 642 q 600 615 627 571 q 654 526 654 471 q 654 383 584 326 q 514 270 404 270 q 380 270 348 272 q 316 275 269 280 z m 269 627 l 269 327 q 289 324 307 322 q 326 320 341 320 q 417 320 456 360 q 496 400 496 475 q 496 551 456 592 q 417 633 343 633 q 329 633 311 631 q 292 630 269 627 z"},"|":{"x_min":0,"x_max":500,"ha":500,"o":"m 200 764 l 301 764 l 301 -236 l 200 -236 z"},"t":{"x_min":0,"x_max":373,"ha":373,"o":"m 95 375 l 38 375 l 38 424 q 80 445 114 479 q 149 513 179 564 l 219 564 l 219 431 l 364 431 l 354 375 l 219 375 l 219 201 q 219 98 229 73 q 239 48 265 48 q 279 48 298 60 q 317 71 340 94 l 364 53 q 330 20 294 4 q 258 -12 217 -12 q 148 -12 122 32 q 95 77 95 204 z"},"M":{"x_min":0,"x_max":971,"ha":971,"o":"m 15 0 l 16 46 q 65 48 83 65 q 101 82 106 144 l 136 544 q 137 549 137 553 q 137 558 137 567 q 137 598 121 609 q 105 620 57 623 l 57 669 l 287 669 l 489 212 l 694 669 l 916 669 l 917 623 q 872 620 857 608 q 842 597 842 562 q 842 559 842 553 q 843 546 843 543 l 866 123 q 868 75 885 61 q 901 47 953 46 l 953 0 l 621 0 l 621 46 l 637 46 q 684 46 702 61 q 719 76 719 116 l 719 129 l 700 534 l 461 0 l 432 0 l 197 519 l 169 146 q 168 141 168 135 q 168 130 168 120 q 168 79 185 62 q 203 46 246 46 l 253 46 l 253 0 z"},"g":{"x_min":0,"x_max":544,"ha":544,"o":"m 246 404 q 209 404 190 379 q 170 354 170 307 q 170 248 190 218 q 210 188 250 188 q 289 188 309 213 q 330 239 330 286 q 330 344 309 374 q 287 404 246 404 z m 157 154 q 99 175 68 211 q 37 247 37 293 q 37 357 99 400 q 160 444 252 444 q 296 444 333 435 q 371 426 405 407 l 546 443 l 546 336 l 444 358 q 454 341 459 325 q 464 309 464 294 q 464 246 434 211 q 403 177 345 159 q 306 147 237 144 q 213 143 203 142 q 173 127 164 119 q 156 110 156 99 q 156 66 285 64 q 307 64 319 64 q 426 62 479 32 q 531 1 531 -61 q 531 -144 450 -192 q 370 -241 232 -241 q 138 -241 79 -212 q 20 -182 20 -137 q 20 -113 39 -91 q 59 -69 118 -32 q 74 -13 52 10 q 31 34 31 62 q 31 93 58 114 q 85 134 157 154 z m 172 -44 q 152 -58 142 -72 q 133 -87 133 -104 q 133 -143 174 -167 q 216 -192 284 -192 q 354 -192 396 -169 q 437 -146 437 -109 q 437 -82 417 -68 q 396 -54 356 -53 q 346 -53 325 -53 q 232 -52 172 -44 z"},"j":{"x_min":0,"x_max":309,"ha":309,"o":"m 76 621 q 76 652 97 673 q 118 694 149 694 q 180 694 201 673 q 223 651 223 621 q 223 590 201 569 q 179 547 149 547 q 119 547 97 568 q 76 590 76 621 z m 222 58 q 222 -37 209 -87 q 196 -138 165 -171 q 135 -203 88 -222 q 41 -241 -10 -241 q -59 -241 -89 -223 q -119 -205 -119 -176 q -119 -150 -101 -133 q -83 -116 -56 -116 q -44 -116 -34 -121 q -24 -126 -13 -138 q -11 -140 -7 -144 q 27 -182 43 -182 q 67 -182 78 -158 q 88 -134 88 -78 l 88 305 q 88 333 76 345 q 64 356 25 366 l 25 403 l 199 464 l 222 464 z"},"i":{"x_min":0,"x_max":316,"ha":316,"o":"m 83 621 q 83 652 104 673 q 125 694 156 694 q 187 694 208 673 q 230 651 230 621 q 230 590 208 569 q 187 547 156 547 q 125 547 104 568 q 83 590 83 621 z m 229 100 q 229 63 242 50 q 255 38 291 37 l 292 0 l 32 0 l 32 37 q 68 38 82 51 q 95 63 95 100 l 95 305 q 95 334 84 345 q 72 356 32 366 l 32 403 l 206 464 l 229 464 z"},"y":{"x_min":0,"x_max":496,"ha":496,"o":"m 213 -113 l 211 -117 q 149 -241 90 -241 q 60 -241 42 -225 q 23 -208 23 -182 q 23 -154 40 -139 q 57 -125 95 -119 q 134 -113 156 -96 q 178 -80 193 -46 l 218 7 l 69 316 q 48 359 29 376 q 9 393 -20 396 l -20 431 l 248 431 l 249 396 q 223 395 209 388 q 195 381 195 369 q 195 358 198 347 q 201 336 211 317 l 292 155 l 371 313 q 378 327 381 337 q 385 347 385 355 q 385 372 368 383 q 351 393 318 396 l 318 431 l 515 431 l 515 396 q 487 396 470 382 q 453 369 431 326 z"},"@":{"x_min":0,"x_max":986,"ha":986,"o":"m 574 156 q 544 107 509 83 q 473 60 430 60 q 361 60 322 104 q 282 149 282 227 q 282 283 307 335 q 331 388 377 431 q 411 462 449 479 q 488 495 528 495 q 575 495 601 473 q 628 451 636 406 l 660 486 l 753 486 l 668 184 l 667 181 q 660 152 660 138 q 660 115 670 102 q 680 89 697 89 q 713 89 738 101 q 764 113 786 132 q 836 175 863 238 q 890 301 890 377 q 890 511 798 595 q 706 678 559 678 q 492 678 431 660 q 371 641 320 605 q 235 546 190 454 q 144 363 144 251 q 144 87 247 -9 q 350 -105 523 -105 q 604 -105 679 -80 q 754 -56 829 -4 l 848 -29 q 774 -84 693 -112 q 611 -139 523 -139 q 432 -139 353 -117 q 275 -94 218 -52 q 144 3 104 84 q 65 165 65 261 q 65 337 90 407 q 116 477 165 536 q 236 621 334 667 q 433 712 547 712 q 717 712 820 620 q 922 527 922 374 q 922 295 893 228 q 864 160 810 111 q 781 85 748 72 q 715 58 681 58 q 633 58 605 83 q 578 109 574 156 z m 546 463 q 516 463 491 441 q 466 419 442 371 q 414 315 399 266 q 385 217 385 177 q 385 138 402 115 q 418 93 447 93 q 478 93 508 123 q 537 153 564 212 q 583 257 595 302 q 606 348 606 382 q 606 421 590 442 q 575 463 546 463 z"},".":{"x_min":0,"x_max":248,"ha":248,"o":"m 50 59 q 50 89 72 111 q 93 132 124 132 q 155 132 176 111 q 197 90 197 59 q 197 28 176 7 q 154 -15 124 -15 q 93 -15 72 7 q 50 28 50 59 z"},"p":{"x_min":0,"x_max":604,"ha":604,"o":"m 215 84 q 244 61 269 49 q 295 37 317 37 q 366 37 396 80 q 426 123 426 194 q 426 274 397 320 q 369 365 318 365 q 293 365 268 354 q 243 344 215 322 z m 215 -141 q 215 -177 228 -190 q 242 -203 278 -204 l 278 -241 l 18 -241 l 19 -204 q 55 -203 68 -190 q 81 -178 81 -141 l 81 305 q 81 335 70 345 q 59 356 19 366 l 18 403 l 192 464 l 215 464 l 215 372 q 266 408 308 426 q 350 444 384 444 q 459 444 508 387 q 557 330 557 240 q 557 191 539 147 q 521 104 485 67 q 450 31 409 13 q 369 -5 323 -5 q 300 -5 272 0 q 245 4 215 12 z"},"X":{"x_min":0,"x_max":780,"ha":780,"o":"m -25 0 l -25 46 q 16 49 53 70 q 90 90 135 136 l 317 321 l 131 547 q 95 591 65 607 q 36 623 -4 623 l -17 623 l -16 669 l 386 669 l 385 623 q 339 623 320 616 q 301 608 301 591 q 301 582 305 573 q 309 564 321 549 l 420 425 l 542 549 q 555 563 560 573 q 565 583 565 593 q 565 608 546 615 q 527 623 489 623 l 491 669 l 774 669 l 774 623 q 696 617 620 538 q 613 531 610 528 l 460 375 l 648 142 q 652 137 659 128 q 722 49 801 46 l 801 0 l 435 0 l 435 46 l 445 46 q 474 46 490 53 q 505 60 505 73 q 505 82 501 91 q 497 100 489 109 l 358 271 l 198 109 q 190 101 187 94 q 183 86 183 77 q 183 62 203 54 q 224 46 263 46 l 262 0 z"},"*":{"x_min":0,"x_max":556,"ha":556,"o":"m 296 669 l 334 502 l 502 516 l 515 475 l 373 393 l 440 241 l 401 216 l 278 323 l 154 216 l 116 241 l 183 393 l 41 475 l 54 516 l 222 502 l 260 669 z"},"Y":{"x_min":0,"x_max":701,"ha":701,"o":"m 294 271 l 85 551 q 53 594 31 609 q 8 624 -19 624 q -21 624 -25 624 q -29 623 -31 623 l -31 668 l 314 668 l 314 623 q 275 623 260 617 q 246 611 246 596 q 246 587 250 578 q 254 568 264 555 l 418 347 l 534 522 q 548 543 556 563 q 564 583 564 595 q 564 609 547 616 q 530 624 499 624 l 493 624 l 494 668 l 744 668 l 744 624 l 736 624 q 703 624 681 612 q 658 599 639 570 l 444 278 l 444 123 q 444 83 464 64 q 484 46 528 46 l 540 46 l 540 0 l 199 0 l 199 46 l 210 46 q 254 46 274 64 q 294 82 294 123 z"},"c":{"x_min":0,"x_max":497,"ha":497,"o":"m 466 97 q 425 40 373 12 q 321 -16 254 -16 q 156 -16 91 45 q 27 107 27 199 q 27 243 44 284 q 61 324 93 358 q 133 399 186 422 q 239 444 297 444 q 370 444 418 416 q 467 389 467 350 q 467 328 451 313 q 436 298 412 298 q 396 298 380 306 q 364 315 349 330 q 341 338 327 356 q 291 401 262 401 q 223 401 196 354 q 170 307 170 235 q 170 152 209 100 q 248 47 308 47 q 339 47 370 64 q 401 82 433 118 z"},"!":{"x_min":0,"x_max":317,"ha":317,"o":"m 140 247 l 84 615 q 83 626 82 634 q 81 641 81 645 q 81 659 94 664 q 106 669 159 669 q 211 669 223 664 q 236 659 236 645 q 236 641 235 634 q 234 626 233 615 l 177 247 z m 85 59 q 85 90 106 111 q 127 132 158 132 q 189 132 210 111 q 232 89 232 59 q 232 28 210 7 q 188 -15 158 -15 q 127 -15 106 6 q 85 28 85 59 z"},"/":{"x_min":0,"x_max":278,"ha":278,"o":"m -54 -93 l 244 683 l 302 683 l 6 -93 z"},"[":{"x_min":0,"x_max":438,"ha":438,"o":"m 248 -77 q 248 -122 267 -134 q 286 -147 380 -147 l 380 -186 l 127 -186 l 127 669 l 380 669 l 380 630 q 286 630 267 617 q 248 604 248 560 z"},"6":{"x_min":0,"x_max":495,"ha":495,"o":"m 183 385 q 212 398 239 405 q 266 412 291 412 q 371 412 418 358 q 466 305 466 215 q 466 114 406 50 q 347 -15 254 -15 q 154 -15 91 64 q 29 143 29 272 q 29 425 128 537 q 227 650 392 683 l 409 650 q 311 606 256 542 q 201 479 183 385 z m 175 334 q 170 299 168 270 q 166 241 166 216 q 166 119 188 73 q 209 28 254 28 q 295 28 312 67 q 330 106 330 204 q 330 295 312 328 q 294 361 251 361 q 239 361 221 354 q 203 348 175 334 z"},"r":{"x_min":0,"x_max":425,"ha":425,"o":"m 222 326 l 258 389 q 274 417 291 430 q 307 444 325 444 q 338 444 351 441 q 364 438 382 431 l 428 413 l 378 305 l 337 323 q 327 327 316 330 q 304 332 293 332 q 266 332 226 279 l 222 274 l 222 100 q 222 63 235 50 q 249 38 284 37 l 285 0 l 25 0 l 25 37 q 61 38 74 50 q 87 63 87 100 l 87 305 q 87 335 76 345 q 64 356 25 366 l 25 403 l 199 464 l 222 464 z"},"2":{"x_min":0,"x_max":495,"ha":495,"o":"m 31 0 l 31 49 q 212 241 261 321 q 309 400 309 470 q 309 525 278 561 q 248 596 201 596 q 157 596 126 565 q 95 533 82 475 l 41 477 q 61 578 113 630 q 165 683 246 683 q 330 683 383 631 q 436 578 436 496 q 436 453 420 415 q 405 376 369 332 q 362 324 291 256 q 219 189 156 124 l 338 124 q 384 124 402 141 q 420 157 425 204 l 460 204 l 441 0 z"},"{":{"x_min":0,"x_max":500,"ha":500,"o":"m 416 740 l 416 710 q 357 709 335 684 q 314 658 314 581 l 314 516 q 314 406 288 366 q 262 326 192 310 q 262 294 288 255 q 314 215 314 105 l 314 39 q 314 -38 335 -63 q 357 -89 416 -90 l 416 -119 q 301 -119 260 -84 q 218 -48 218 50 l 218 144 q 218 225 190 255 q 163 285 87 292 l 87 329 q 163 336 190 366 q 218 396 218 477 l 218 571 q 218 669 260 705 q 301 740 416 740 z"},"9":{"x_min":0,"x_max":495,"ha":495,"o":"m 312 281 q 283 268 256 261 q 229 254 204 254 q 125 254 77 308 q 29 361 29 451 q 29 552 89 618 q 149 683 241 683 q 341 683 403 603 q 466 523 466 394 q 466 241 367 129 q 268 16 103 -16 l 86 16 q 184 58 239 123 q 294 188 312 281 z m 320 332 q 325 367 327 396 q 329 426 329 450 q 329 547 307 594 q 286 641 241 641 q 200 641 183 601 q 165 561 165 462 q 165 371 183 338 q 201 305 244 305 q 256 305 274 312 q 292 318 320 332 z"}," ":{"x_min":0,"x_max":248,"ha":248,"o":""},"I":{"x_min":0,"x_max":386,"ha":386,"o":"m 268 123 q 268 82 288 64 q 308 46 352 46 l 363 46 l 363 0 l 23 0 l 23 46 l 34 46 q 79 46 98 64 q 118 82 118 123 l 118 546 q 118 586 98 605 q 78 623 34 623 l 22 623 l 22 669 l 363 669 l 363 623 l 352 623 q 308 623 288 605 q 268 587 268 546 z"},"H":{"x_min":0,"x_max":877,"ha":877,"o":"m 609 376 l 609 546 q 609 587 589 605 q 570 623 525 623 l 514 623 l 514 669 l 854 669 l 854 623 l 843 623 q 798 623 779 605 q 759 587 759 546 l 760 123 q 760 82 780 64 q 799 46 844 46 l 855 46 l 855 0 l 514 0 l 514 46 l 525 46 q 570 46 589 64 q 609 82 609 123 l 609 311 l 268 311 l 268 123 q 268 82 288 64 q 308 46 352 46 l 363 46 l 363 0 l 23 0 l 23 46 l 34 46 q 79 46 98 64 q 118 82 118 123 l 118 546 q 118 587 98 605 q 79 623 34 623 l 23 623 l 23 669 l 363 669 l 363 623 l 352 623 q 308 623 288 605 q 268 587 268 546 l 268 376 z"},"4":{"x_min":0,"x_max":495,"ha":495,"o":"m 247 -10 l 247 169 l 19 169 l 19 217 l 325 683 l 381 683 l 381 243 l 468 243 l 468 169 l 381 169 l 381 -10 z m 247 243 q 250 316 254 382 q 259 447 267 507 l 89 243 z"},"~":{"x_min":0,"x_max":833,"ha":833,"o":"m 747 392 l 747 284 q 696 250 651 233 q 606 217 562 217 q 540 217 517 221 q 495 225 472 232 q 460 236 438 244 q 331 281 275 281 q 233 281 188 262 q 143 244 87 204 l 87 312 q 139 347 187 365 q 234 382 276 382 q 333 382 418 354 l 420 353 q 429 350 447 344 q 522 317 564 317 q 605 317 649 335 q 693 353 747 392 z"},"D":{"x_min":0,"x_max":854,"ha":854,"o":"m 23 0 l 23 46 l 34 46 q 79 46 98 64 q 118 82 118 123 l 118 543 q 118 584 98 602 q 79 620 34 620 l 23 620 l 23 667 q 126 674 207 678 q 288 681 350 681 q 472 681 552 664 q 633 646 687 608 q 749 565 782 498 q 816 430 816 350 q 816 269 782 201 q 748 133 682 83 q 624 39 554 20 q 484 0 374 0 z m 338 631 l 268 631 l 268 128 q 268 83 293 64 q 317 45 377 45 q 506 45 581 125 q 656 205 656 342 q 656 477 572 554 q 488 631 338 631 z"},"^":{"x_min":0,"x_max":1000,"ha":1000,"o":"m 442 714 l 557 714 l 797 438 l 742 438 l 499 620 l 256 438 l 201 438 z"},"0":{"x_min":0,"x_max":495,"ha":495,"o":"m 468 334 q 468 174 408 81 q 349 -13 248 -13 q 147 -13 88 80 q 28 174 28 334 q 28 494 88 588 q 148 683 248 683 q 348 683 408 588 q 468 494 468 334 z m 247 27 q 292 27 308 80 q 325 133 325 334 q 325 536 309 589 q 292 641 248 641 q 204 641 188 589 q 171 538 171 359 q 171 131 187 79 q 204 27 247 27 z"},"F":{"x_min":0,"x_max":599,"ha":599,"o":"m 268 123 q 268 82 288 64 q 308 46 352 46 l 363 46 l 363 0 l 23 0 l 23 46 l 34 46 q 78 46 98 63 q 117 81 117 120 l 117 123 l 116 546 q 116 587 97 605 q 77 623 33 623 l 22 623 l 22 669 l 543 669 l 552 512 l 512 512 q 505 571 487 589 q 469 606 408 606 l 266 606 l 266 368 l 387 368 q 435 368 456 385 q 477 403 477 442 l 477 448 l 519 448 l 519 229 l 477 229 l 477 235 q 477 274 456 292 q 435 309 387 309 l 268 309 z"},"`":{"x_min":0,"x_max":500,"ha":500,"o":"m 345 497 l 301 497 l 148 578 q 120 593 111 604 q 102 615 102 630 q 102 650 114 662 q 126 675 146 675 q 161 675 176 666 q 191 656 212 635 z"},"k":{"x_min":0,"x_max":569,"ha":569,"o":"m 220 100 q 220 62 233 50 q 246 38 282 37 l 282 0 l 22 0 l 23 37 q 59 38 72 50 q 85 63 85 100 l 85 559 q 85 589 74 599 q 62 610 23 620 l 22 657 l 197 718 l 220 718 l 220 258 l 345 346 q 357 355 363 362 q 368 369 368 376 q 368 385 357 391 q 345 396 325 396 l 325 431 l 543 431 l 542 396 q 479 393 420 346 q 413 340 409 337 l 338 281 l 489 94 q 512 65 533 51 q 555 37 576 37 l 578 37 l 578 0 l 334 0 l 334 37 l 337 37 q 347 37 352 41 q 358 44 358 51 q 358 57 353 65 q 349 74 340 85 l 220 237 z"},"u":{"x_min":0,"x_max":604,"ha":604,"o":"m 383 60 q 324 21 277 2 q 230 -16 191 -16 q 130 -16 105 23 q 81 62 81 173 l 81 305 q 81 338 70 348 q 59 357 18 366 l 18 403 l 192 444 l 216 444 l 216 197 q 216 118 230 93 q 244 67 279 67 q 299 67 326 77 q 353 87 383 106 l 383 305 q 383 337 364 351 q 344 364 296 366 l 296 396 l 495 444 l 518 444 l 518 144 q 518 111 532 98 q 546 84 581 83 l 581 46 l 406 -16 l 383 -16 z"},"]":{"x_min":0,"x_max":438,"ha":438,"o":"m 190 560 q 190 604 171 617 q 152 630 58 630 l 58 669 l 311 669 l 311 -186 l 58 -186 l 58 -147 q 152 -147 171 -134 q 190 -122 190 -77 z"},"U":{"x_min":0,"x_max":841,"ha":841,"o":"m 725 279 q 725 133 647 60 q 569 -13 413 -13 q 262 -13 188 53 q 113 120 113 254 l 113 546 q 113 587 93 605 q 74 623 29 623 l 18 623 l 18 669 l 355 669 l 355 623 l 344 623 q 299 623 280 605 q 260 587 260 546 l 260 282 q 260 213 268 180 q 275 147 294 124 q 317 94 359 78 q 401 61 453 61 q 553 61 605 117 q 657 172 657 279 l 657 546 q 657 587 637 605 q 618 623 573 623 l 562 623 l 562 669 l 819 669 l 819 623 l 808 623 q 764 623 744 605 q 725 587 725 546 z"},"o":{"x_min":0,"x_max":569,"ha":569,"o":"m 28 211 q 28 310 103 377 q 178 444 291 444 q 402 444 472 381 q 542 318 542 219 q 542 119 467 52 q 393 -16 279 -16 q 168 -16 98 48 q 28 112 28 211 z m 303 22 q 351 22 376 56 q 402 90 402 154 q 402 265 363 336 q 324 408 264 408 q 219 408 192 375 q 165 343 165 288 q 165 169 204 95 q 242 22 303 22 z"},"N":{"x_min":0,"x_max":877,"ha":877,"o":"m 192 123 q 192 82 212 64 q 231 46 276 46 l 287 46 l 287 0 l 24 0 l 24 46 l 35 46 q 80 46 99 64 q 119 82 119 123 l 119 602 q 104 613 88 618 q 72 623 55 623 q 54 623 50 623 q 47 622 45 622 q 42 622 41 622 q 40 623 39 623 l 39 669 l 256 669 l 688 223 l 688 546 q 688 587 668 605 q 648 623 604 623 l 593 623 l 593 669 l 856 669 l 856 623 l 845 623 q 800 623 781 605 q 761 587 761 546 l 761 -3 l 698 -3 l 192 520 z"},"+":{"x_min":0,"x_max":833,"ha":833,"o":"m 367 596 l 466 596 l 466 347 l 709 347 l 709 250 l 466 250 l 466 0 l 367 0 l 367 250 l 124 250 l 124 347 l 367 347 z"},"G":{"x_min":0,"x_max":826,"ha":826,"o":"m 563 198 q 563 240 542 258 q 521 276 473 276 q 462 276 456 276 q 450 275 444 275 l 444 321 l 790 321 l 789 275 q 750 273 732 255 q 714 237 714 198 l 714 50 q 644 19 570 3 q 496 -13 422 -13 q 336 -13 271 8 q 206 29 153 74 q 96 123 67 186 q 38 250 38 328 q 38 403 69 471 q 101 539 159 589 q 209 633 275 656 q 340 678 420 678 q 477 678 534 669 q 591 660 652 642 l 697 654 l 716 653 l 715 459 l 673 459 q 642 548 586 593 q 530 637 450 637 q 338 637 270 558 q 201 479 201 349 q 201 207 271 122 q 340 38 455 38 q 484 38 512 44 q 540 50 563 62 z"},"q":{"x_min":0,"x_max":574,"ha":574,"o":"m 372 132 l 372 289 q 372 343 347 373 q 321 403 275 403 q 222 403 192 361 q 162 319 162 244 q 162 163 191 119 q 219 74 271 74 q 302 74 326 88 q 351 102 372 132 z m 506 -141 q 506 -178 519 -190 q 532 -203 569 -204 l 569 -241 l 285 -241 l 285 -204 q 338 -204 355 -192 q 372 -180 372 -141 l 372 67 q 322 31 280 13 q 237 -5 203 -5 q 127 -5 79 52 q 30 109 30 199 q 30 302 102 373 q 174 444 280 444 q 311 444 346 436 q 381 427 442 405 l 491 447 l 514 444 q 510 426 508 404 q 506 382 506 354 z"},"d":{"x_min":0,"x_max":595,"ha":595,"o":"m 369 351 q 339 375 314 387 q 290 399 268 399 q 219 399 189 356 q 159 313 159 241 q 159 161 188 115 q 216 70 267 70 q 291 70 315 81 q 340 91 369 114 z m 369 559 q 369 589 358 599 q 347 610 307 620 l 306 657 l 481 718 l 504 718 l 504 144 q 504 114 515 104 q 526 93 566 83 l 567 46 l 392 -15 l 369 -15 l 369 64 q 317 27 276 9 q 234 -9 201 -9 q 125 -9 77 48 q 28 105 28 195 q 28 299 97 372 q 167 444 268 444 q 284 444 305 441 q 326 438 369 428 z"},"1":{"x_min":0,"x_max":495,"ha":495,"o":"m 329 98 q 329 64 343 54 q 357 44 431 42 l 431 0 l 93 0 l 93 42 q 166 44 180 54 q 194 64 194 98 l 194 538 q 162 519 133 507 q 104 495 76 490 l 62 526 q 127 556 179 595 q 231 635 270 683 l 329 683 z"},"5":{"x_min":0,"x_max":495,"ha":495,"o":"m 110 310 l 75 325 l 90 667 l 303 667 q 336 667 350 670 q 364 674 370 682 l 398 682 l 381 558 l 129 558 l 122 431 q 149 437 174 440 q 199 443 219 443 q 315 443 377 382 q 439 321 439 228 q 439 123 368 55 q 297 -13 185 -13 q 117 -13 74 12 q 32 38 32 77 q 32 100 46 115 q 60 130 82 130 q 96 130 109 124 q 122 118 132 107 q 139 100 151 83 q 186 39 221 39 q 261 39 288 79 q 315 119 315 181 q 315 249 281 289 q 248 329 191 329 q 172 329 152 324 q 131 319 110 310 z"}}}
